<?xml version="1.0" encoding="iso-8859-1"?>
<!-- Generator: Adobe Illustrator 19.0.0, SVG Export Plug-In . SVG Version: 6.00 Build 0)  -->
<svg version="1.1" id="Layer_1" xmlns="http://www.w3.org/2000/svg" xmlns:xlink="http://www.w3.org/1999/xlink" x="0px" y="0px"
	 viewBox="0 0 197.371 197.371" style="enable-background:new 0 0 197.371 197.371;" xml:space="preserve">
<g>
	<g>
		<path fill="#d3d5bda3" d="M98.628,91.085c-7.004,0-13.115,3.806-16.385,9.461c3.27,5.654,9.381,9.463,16.385,9.463
			c7.004,0,13.109-3.809,16.383-9.463C111.737,94.891,105.632,91.085,98.628,91.085z"/>
		<path fill="#d3d5bda3" d="M98.628,111.009c-7.087,0-13.697-3.817-17.25-9.962l-0.29-0.5l0.289-0.5c3.553-6.144,10.162-9.96,17.251-9.96
			c7.083,0,13.692,3.816,17.248,9.96l0.29,0.501l-0.29,0.501C112.318,107.192,105.71,111.009,98.628,111.009z M83.409,100.546
			c3.26,5.235,9.038,8.463,15.219,8.463c6.176,0,11.952-3.228,15.216-8.463c-3.262-5.233-9.039-8.461-15.216-8.461
			C92.445,92.085,86.668,95.313,83.409,100.546z"/>
	</g>
	<path fill="#d3d5bda3" d="M121.367,98.783c-0.346,0-0.682-0.179-0.866-0.499c-4.508-7.792-12.89-12.632-21.873-12.632
		c-8.982,0-17.365,4.84-21.875,12.632c-0.277,0.478-0.888,0.64-1.366,0.364s-0.642-0.888-0.364-1.366
		c4.866-8.407,13.911-13.63,23.605-13.63c9.695,0,18.739,5.223,23.604,13.63c0.277,0.478,0.113,1.09-0.364,1.367
		C121.709,98.74,121.537,98.783,121.367,98.783z"/>
	<circle fill="#9c823782" cx="98.627" cy="100.546" r="5.812"/>
	<path fill="#d3d5bda3" d="M145.433,129.941H51.821c-0.354,0-0.683-0.188-0.862-0.493s-0.184-0.683-0.012-0.993l46.805-84.187
		c0.354-0.635,1.395-0.635,1.748,0l46.807,84.187c0.172,0.311,0.168,0.688-0.012,0.993S145.787,129.941,145.433,129.941z
		 M53.521,127.941h90.211L98.626,46.812L53.521,127.941z"/>
	<path fill="#d3d5bda3" d="M98.626,157.697c-0.363,0-0.697-0.196-0.874-0.514L50.947,72.997c-0.172-0.31-0.168-0.688,0.012-0.993
		c0.18-0.306,0.508-0.493,0.862-0.493h93.611c0.354,0,0.683,0.188,0.862,0.493c0.18,0.305,0.184,0.683,0.012,0.993L99.5,157.184
		C99.323,157.501,98.989,157.697,98.626,157.697z M53.521,73.511l45.104,81.128l45.106-81.128
		C143.731,73.511,53.521,73.511,53.521,73.511z"/>
	<path fill="#d3d5bda3" d="M103.331,39.125c-0.159,0-0.319-0.038-0.466-0.115l-4.239-2.229l-4.239,2.229c-0.337,0.177-0.743,0.148-1.054-0.076
		c-0.308-0.224-0.462-0.603-0.397-0.978l0.81-4.721l-3.429-3.344c-0.272-0.266-0.37-0.663-0.253-1.025
		c0.118-0.362,0.431-0.626,0.808-0.681l4.739-0.688l2.119-4.295c0.336-0.683,1.457-0.683,1.793,0l2.121,4.295l4.739,0.688
		c0.377,0.055,0.689,0.319,0.808,0.681c0.117,0.362,0.02,0.759-0.253,1.025l-3.431,3.343l0.81,4.721
		c0.064,0.375-0.09,0.754-0.397,0.978C103.744,39.061,103.538,39.125,103.331,39.125z M98.626,34.651
		c0.16,0,0.319,0.038,0.466,0.115l2.911,1.531l-0.556-3.242c-0.056-0.324,0.052-0.655,0.287-0.885l2.355-2.296l-3.254-0.473
		c-0.326-0.047-0.607-0.252-0.753-0.547l-1.457-2.95l-1.455,2.95c-0.146,0.295-0.427,0.5-0.753,0.547l-3.255,0.473l2.354,2.296
		c0.235,0.229,0.343,0.561,0.287,0.885l-0.556,3.242l2.911-1.531C98.307,34.689,98.466,34.651,98.626,34.651z"/>
	<path fill="#d3d5bda3" d="M103.331,178.164c-0.159,0-0.319-0.038-0.465-0.115l-4.24-2.228l-4.24,2.228c-0.334,0.178-0.744,0.148-1.053-0.076
		c-0.308-0.224-0.462-0.603-0.397-0.978l0.81-4.721l-3.429-3.344c-0.272-0.266-0.37-0.663-0.253-1.025
		c0.118-0.361,0.431-0.625,0.808-0.68l4.739-0.688l2.119-4.296c0.336-0.684,1.457-0.684,1.793,0l2.121,4.296l4.739,0.688
		c0.377,0.055,0.689,0.318,0.808,0.68c0.117,0.362,0.02,0.76-0.253,1.025l-3.431,3.344l0.81,4.721
		c0.064,0.375-0.09,0.754-0.397,0.978C103.745,178.1,103.538,178.164,103.331,178.164z M93.163,168.913l2.354,2.297
		c0.235,0.229,0.343,0.561,0.287,0.885l-0.556,3.242l2.912-1.53c0.291-0.154,0.639-0.154,0.93,0l2.912,1.53l-0.556-3.242
		c-0.056-0.324,0.052-0.655,0.287-0.885l2.355-2.297l-3.254-0.473c-0.326-0.047-0.607-0.252-0.753-0.547l-1.457-2.95l-1.455,2.95
		c-0.146,0.295-0.427,0.5-0.753,0.547L93.163,168.913z"/>
	<g>
		<path fill="#d3d5bda3" d="M159.966,76.901c-0.159,0-0.319-0.038-0.465-0.115l-4.24-2.228l-4.24,2.228c-0.335,0.177-0.744,0.148-1.053-0.076
			c-0.308-0.224-0.462-0.603-0.397-0.978l0.81-4.72l-3.429-3.344c-0.272-0.266-0.37-0.663-0.253-1.025
			c0.118-0.362,0.431-0.626,0.808-0.681l4.739-0.688l2.119-4.295c0.336-0.683,1.457-0.683,1.793,0l2.121,4.295l4.739,0.688
			c0.377,0.055,0.689,0.319,0.808,0.681c0.117,0.362,0.02,0.759-0.253,1.025l-3.431,3.344l0.81,4.72
			c0.064,0.375-0.09,0.754-0.397,0.978C160.38,76.836,160.173,76.901,159.966,76.901z M149.798,67.65l2.354,2.296
			c0.235,0.229,0.343,0.561,0.287,0.885l-0.556,3.242l2.912-1.53c0.291-0.153,0.639-0.153,0.93,0l2.912,1.53l-0.556-3.242
			c-0.056-0.324,0.052-0.655,0.287-0.885l2.355-2.297l-3.254-0.472c-0.326-0.047-0.607-0.252-0.753-0.547l-1.457-2.95l-1.455,2.95
			c-0.146,0.295-0.427,0.5-0.753,0.547L149.798,67.65z"/>
		<path fill="#d3d5bda3" d="M159.966,135.135c-0.159,0-0.319-0.038-0.465-0.115l-4.24-2.228l-4.24,2.228c-0.335,0.179-0.744,0.149-1.053-0.076
			c-0.308-0.224-0.462-0.603-0.397-0.978l0.81-4.721l-3.429-3.344c-0.272-0.266-0.37-0.663-0.253-1.025
			c0.118-0.361,0.431-0.625,0.808-0.68l4.739-0.688l2.119-4.296c0.336-0.684,1.457-0.684,1.793,0l2.121,4.296l4.739,0.688
			c0.377,0.055,0.689,0.318,0.808,0.68c0.117,0.362,0.02,0.76-0.253,1.025l-3.431,3.344l0.81,4.721
			c0.064,0.375-0.09,0.754-0.397,0.978C160.38,135.07,160.173,135.135,159.966,135.135z M149.798,125.884l2.354,2.297
			c0.235,0.229,0.343,0.561,0.287,0.885l-0.556,3.242l2.912-1.53c0.291-0.154,0.639-0.154,0.93,0l2.912,1.53l-0.556-3.242
			c-0.056-0.324,0.052-0.655,0.287-0.885l2.355-2.297l-3.254-0.473c-0.326-0.047-0.607-0.252-0.753-0.547l-1.457-2.95l-1.455,2.95
			c-0.146,0.295-0.427,0.5-0.753,0.547L149.798,125.884z"/>
		<path fill="#d3d5bda3" d="M46.698,76.901c-0.159,0-0.319-0.038-0.465-0.115l-4.24-2.228l-4.24,2.228c-0.334,0.177-0.745,0.148-1.053-0.076
			c-0.308-0.224-0.462-0.603-0.397-0.978l0.81-4.72l-3.431-3.344c-0.272-0.266-0.37-0.663-0.253-1.025
			c0.118-0.362,0.431-0.626,0.808-0.681l4.739-0.688l2.121-4.295c0.168-0.341,0.516-0.557,0.896-0.557l0,0
			c0.381,0,0.729,0.216,0.896,0.558l2.119,4.295l4.739,0.688c0.377,0.055,0.689,0.318,0.808,0.681
			c0.117,0.362,0.02,0.759-0.253,1.025l-3.429,3.344l0.81,4.72c0.064,0.375-0.09,0.754-0.397,0.978
			C47.112,76.836,46.905,76.901,46.698,76.901z M41.993,72.428c0.16,0,0.319,0.038,0.465,0.115l2.912,1.53l-0.556-3.242
			c-0.056-0.324,0.052-0.655,0.287-0.885l2.354-2.296L44.2,67.177c-0.326-0.047-0.607-0.252-0.753-0.547l-1.455-2.95l-1.457,2.95
			c-0.146,0.295-0.427,0.5-0.753,0.547l-3.254,0.472l2.355,2.297c0.235,0.229,0.343,0.561,0.287,0.885l-0.556,3.242l2.912-1.53
			C41.674,72.466,41.833,72.428,41.993,72.428z"/>
		<path fill="#d3d5bda3" d="M46.698,135.135c-0.159,0-0.319-0.038-0.465-0.115l-4.24-2.228l-4.24,2.228c-0.334,0.179-0.745,0.149-1.053-0.076
			c-0.308-0.224-0.462-0.603-0.397-0.978l0.81-4.721l-3.431-3.344c-0.272-0.266-0.37-0.663-0.253-1.025
			c0.118-0.361,0.431-0.625,0.808-0.68l4.739-0.688l2.121-4.294c0.168-0.342,0.516-0.558,0.896-0.558l0,0
			c0.381,0,0.729,0.216,0.896,0.558l2.119,4.294l4.739,0.688c0.377,0.055,0.689,0.318,0.808,0.68c0.117,0.362,0.02,0.76-0.253,1.025
			l-3.429,3.344l0.81,4.721c0.064,0.375-0.09,0.754-0.397,0.978C47.112,135.07,46.905,135.135,46.698,135.135z M41.993,130.662
			c0.16,0,0.319,0.038,0.465,0.115l2.912,1.53l-0.556-3.242c-0.056-0.324,0.052-0.655,0.287-0.885l2.354-2.297L44.2,125.41
			c-0.326-0.047-0.607-0.252-0.753-0.547l-1.455-2.949l-1.457,2.949c-0.146,0.296-0.427,0.5-0.753,0.547l-3.254,0.473l2.355,2.297
			c0.235,0.229,0.343,0.561,0.287,0.885l-0.556,3.242l2.912-1.53C41.674,130.7,41.833,130.662,41.993,130.662z"/>
	</g>
	<path fill="#d3d5bda3" d="M128.804,53.343c-4.736,0-8.59-3.853-8.59-8.589s3.854-8.589,8.59-8.589s8.59,3.853,8.59,8.589
		S133.54,53.343,128.804,53.343z M128.804,38.165c-3.634,0-6.59,2.956-6.59,6.589s2.956,6.589,6.59,6.589
		c3.634,0,6.59-2.956,6.59-6.589S132.438,38.165,128.804,38.165z"/>
	<path fill="#d3d5bda3" d="M68.448,53.343c-4.735,0-8.588-3.853-8.588-8.589s3.853-8.589,8.588-8.589c4.736,0,8.59,3.853,8.59,8.589
		S73.185,53.343,68.448,53.343z M68.448,38.165c-3.633,0-6.588,2.956-6.588,6.589s2.955,6.589,6.588,6.589
		c3.634,0,6.59-2.956,6.59-6.589S72.082,38.165,68.448,38.165z"/>
	<path fill="#d3d5bda3" d="M128.804,154.619c-4.736,0-8.59-3.854-8.59-8.59s3.854-8.59,8.59-8.59s8.59,3.854,8.59,8.59
		S133.54,154.619,128.804,154.619z M128.804,139.439c-3.634,0-6.59,2.956-6.59,6.59s2.956,6.59,6.59,6.59
		c3.634,0,6.59-2.956,6.59-6.59S132.438,139.439,128.804,139.439z"/>
	<path fill="#d3d5bda3" d="M155.261,109.138c-4.736,0-8.59-3.854-8.59-8.59c0-4.737,3.854-8.591,8.59-8.591s8.59,3.854,8.59,8.591
		S159.997,109.138,155.261,109.138z M155.261,93.958c-3.634,0-6.59,2.957-6.59,6.591s2.956,6.59,6.59,6.59s6.59-2.956,6.59-6.59
		C161.851,96.914,158.895,93.958,155.261,93.958z"/>
	<path fill="#d3d5bda3" d="M41.991,109.138c-4.735,0-8.588-3.854-8.588-8.59c0-4.737,3.853-8.591,8.588-8.591c4.736,0,8.59,3.854,8.59,8.591
		S46.728,109.138,41.991,109.138z M41.991,93.958c-3.633,0-6.588,2.957-6.588,6.591s2.955,6.59,6.588,6.59
		c3.634,0,6.59-2.956,6.59-6.59C48.581,96.914,45.625,93.958,41.991,93.958z"/>
	<path fill="#d3d5bda3" d="M68.448,154.619c-4.735,0-8.588-3.854-8.588-8.59s3.853-8.59,8.588-8.59c4.736,0,8.59,3.854,8.59,8.59
		S73.185,154.619,68.448,154.619z M68.448,139.439c-3.633,0-6.588,2.956-6.588,6.59s2.955,6.59,6.588,6.59
		c3.634,0,6.59-2.956,6.59-6.59S72.082,139.439,68.448,139.439z"/>
	<path fill="#d3d5bda3" d="M98.626,15.725c-0.553,0-1-0.448-1-1V1c0-0.552,0.447-1,1-1s1,0.448,1,1v13.725C99.626,15.277,99.179,15.725,98.626,15.725
		z"/>
	<path fill="#d3d5bda3" d="M105.489,8.862H91.765c-0.553,0-1-0.448-1-1s0.447-1,1-1h13.725c0.553,0,1,0.448,1,1S106.042,8.862,105.489,8.862z"/>
	<path fill="#d3d5bda3" d="M105.489,190.508H91.765c-0.553,0-1-0.447-1-1s0.447-1,1-1h13.725c0.553,0,1,0.447,1,1S106.042,190.508,105.489,190.508z"
		/>
	<path fill="#d3d5bda3" d="M98.626,197.371c-0.553,0-1-0.447-1-1v-13.725c0-0.553,0.447-1,1-1s1,0.447,1,1v13.725
		C99.626,196.924,99.179,197.371,98.626,197.371z"/>
	<path fill="#d3d5bda3" d="M184.015,99.685H170.29c-0.553,0-1-0.448-1-1s0.447-1,1-1h13.725c0.553,0,1,0.448,1,1S184.567,99.685,184.015,99.685z"/>
	<g>
		<path fill="#d3d5bda3" d="M136.394,38.012c-0.256,0-0.512-0.098-0.707-0.293c-0.391-0.391-0.391-1.023,0-1.414l9.705-9.705
			c0.391-0.391,1.023-0.391,1.414,0s0.391,1.023,0,1.414l-9.705,9.705C136.905,37.914,136.649,38.012,136.394,38.012z"/>
		<path fill="#d3d5bda3" d="M146.099,171.064c-0.256,0-0.512-0.098-0.707-0.293l-9.705-9.705c-0.391-0.391-0.391-1.023,0-1.414s1.023-0.391,1.414,0
			l9.705,9.705c0.391,0.391,0.391,1.023,0,1.414C146.61,170.967,146.354,171.064,146.099,171.064z"/>
	</g>
	<path fill="#d3d5bda3" d="M27.081,99.685H13.356c-0.553,0-1-0.448-1-1s0.447-1,1-1h13.725c0.553,0,1,0.448,1,1S27.634,99.685,27.081,99.685z"/>
	<path fill="#d3d5bda3" d="M20.22,106.548c-0.553,0-1-0.448-1-1V91.823c0-0.552,0.447-1,1-1s1,0.448,1,1v13.726
		C21.22,106.101,20.772,106.548,20.22,106.548z"/>
	<path fill="#d3d5bda3" d="M177.151,106.548c-0.553,0-1-0.448-1-1V91.823c0-0.552,0.447-1,1-1s1,0.448,1,1v13.726
		C178.151,106.101,177.704,106.548,177.151,106.548z"/>
	<path fill="#d3d5bda3" d="M60.978,38.012c-0.256,0-0.512-0.098-0.707-0.293l-9.705-9.705c-0.391-0.391-0.391-1.023,0-1.414s1.023-0.391,1.414,0
		l9.705,9.705c0.391,0.391,0.391,1.023,0,1.414C61.489,37.914,61.233,38.012,60.978,38.012z"/>
	<path fill="#d3d5bda3" d="M51.272,171.064c-0.256,0-0.512-0.098-0.707-0.293c-0.391-0.391-0.391-1.023,0-1.414l9.705-9.705
		c0.391-0.391,1.023-0.391,1.414,0s0.391,1.023,0,1.414l-9.705,9.705C51.784,170.967,51.528,171.064,51.272,171.064z"/>
</g>
<g>
</g>
<g>
</g>
<g>
</g>
<g>
</g>
<g>
</g>
<g>
</g>
<g>
</g>
<g>
</g>
<g>
</g>
<g>
</g>
<g>
</g>
<g>
</g>
<g>
</g>
<g>
</g>
<g>
</g>
</svg>
