<?xml version="1.0" encoding="iso-8859-1"?>
<!-- Generator: Adobe Illustrator 19.0.0, SVG Export Plug-In . SVG Version: 6.00 Build 0)  -->
<svg version="1.1" id="Layer_1" xmlns="http://www.w3.org/2000/svg" xmlns:xlink="http://www.w3.org/1999/xlink" x="0px" y="0px"
	 viewBox="0 0 252.365 252.365" style="enable-background:new 0 0 252.365 252.365;" xml:space="preserve">
<g>
	<g>
		<path fill="#d3d5bda3" d="M59.574,205.365h-43.09c-0.552,0-1-0.447-1-1v-26.203l-5.147-8.233c-0.099-0.159-0.152-0.343-0.152-0.53v-49.138
			c-0.305-0.539-0.519-1.062-0.648-1.59L0.191,80.676c-0.416-1.688-0.149-3.438,0.75-4.925c0.9-1.487,2.326-2.536,4.016-2.952
			c0.512-0.125,1.036-0.189,1.558-0.189c3.001,0,5.6,2.038,6.318,4.956l7.43,30.208c0.156-0.058,0.314-0.115,0.475-0.173
			l-5.434-45.982c-0.513-4.343,2.604-8.294,6.948-8.808c4.397-0.517,8.3,2.646,8.807,6.947l5.219,44.164
			c0.78-0.099,1.566-0.186,2.35-0.26v-48.73c0-4.374,3.559-7.933,7.933-7.933s7.933,3.559,7.933,7.933v48.782
			c1.207,0.117,2.363,0.251,3.496,0.406l4.868-45.942c0.458-4.324,4.302-7.518,8.724-7.052c2.106,0.223,4,1.253,5.333,2.901
			c1.332,1.648,1.943,3.716,1.719,5.823l-5.188,48.957c-0.03,0.284-0.08,0.575-0.156,0.907v21.94l2.754,4.092l10.909-6.308
			c8.536-12.833,16.887-15.534,22.401-15.534c5.2,0,8.543,2.33,8.684,2.429c0.225,0.159,0.373,0.404,0.411,0.677
			s-0.038,0.549-0.21,0.764l-14.203,17.696c-0.038,0.047-0.08,0.091-0.125,0.13l-18.692,16.181l-5.978,17.934
			c-0.056,0.166-0.154,0.315-0.285,0.432l-18.382,16.302v17.917C60.574,204.918,60.126,205.365,59.574,205.365z M17.484,203.365
			h41.09v-17.367c0-0.286,0.123-0.559,0.336-0.748l18.519-16.422l5.979-17.939c0.057-0.17,0.158-0.322,0.294-0.439l18.83-16.302
			l13.415-16.714c-1.216-0.611-3.553-1.53-6.594-1.53c-5.052,0-12.772,2.573-20.863,14.833c-0.085,0.129-0.2,0.236-0.334,0.314
			l-11.921,6.893c-0.455,0.267-1.036,0.129-1.33-0.307l-3.446-5.119c-0.111-0.165-0.17-0.359-0.17-0.559v-22.362
			c0-0.079,0.009-0.157,0.028-0.233c0.06-0.251,0.111-0.505,0.139-0.768l5.188-48.958c0.167-1.576-0.289-3.122-1.286-4.354
			c-0.996-1.232-2.413-2.003-3.988-2.169c-3.3-0.355-6.182,2.039-6.524,5.274l-4.978,46.974c-0.029,0.271-0.167,0.519-0.383,0.686
			s-0.492,0.237-0.76,0.198c-1.71-0.257-3.458-0.461-5.344-0.626c-0.543-0.047-0.949-0.522-0.911-1.066
			c0.014-0.185,0.022-0.287,0.022-0.391v-49.23c0-3.271-2.661-5.933-5.933-5.933s-5.933,2.661-5.933,5.933v49.23
			c0,0.083,0.006,0.164,0.012,0.245c0,0.002,0.007,0.101,0.007,0.104c0.035,0.544-0.372,1.015-0.915,1.061
			c-1.396,0.116-2.806,0.273-4.19,0.466c-0.266,0.038-0.537-0.034-0.749-0.199c-0.213-0.164-0.351-0.407-0.382-0.674l-5.338-45.171
			c-0.379-3.218-3.298-5.59-6.585-5.195c-3.25,0.384-5.581,3.339-5.197,6.587l5.527,46.776c0.055,0.467-0.222,0.909-0.667,1.063
			c-0.784,0.271-1.526,0.544-2.226,0.817c-0.268,0.105-0.569,0.089-0.824-0.044s-0.441-0.369-0.51-0.649l-7.7-31.304
			c-0.498-2.021-2.297-3.434-4.376-3.434c-0.361,0-0.725,0.044-1.08,0.132c-1.17,0.288-2.159,1.014-2.782,2.044
			s-0.808,2.242-0.52,3.412l9.346,37.994c0.102,0.412,0.279,0.816,0.559,1.273c0.096,0.157,0.147,0.338,0.147,0.522v49.124
			l5.147,8.233c0.099,0.159,0.152,0.343,0.152,0.53v25.488H17.484z"/>
		<path fill="#d3d5bda3" d="M30.408,106.716c-0.462,0-0.877-0.322-0.977-0.792c-0.115-0.54,0.229-1.071,0.77-1.187
			c0.428-0.091,10.568-2.217,17.274-0.67c0.539,0.125,0.874,0.661,0.75,1.199c-0.125,0.539-0.661,0.871-1.199,0.75
			c-6.282-1.45-16.308,0.655-16.408,0.677C30.547,106.709,30.477,106.716,30.408,106.716z"/>
		<path fill="#d3d5bda3" d="M15.808,112.442c-0.317,0-0.629-0.15-0.823-0.431c-0.314-0.454-0.201-1.077,0.253-1.392
			c5.06-3.503,9.833-3.926,10.034-3.942c0.569-0.047,1.031,0.365,1.077,0.914c0.045,0.55-0.363,1.032-0.913,1.079
			c-0.044,0.004-4.463,0.411-9.059,3.594C16.203,112.385,16.005,112.442,15.808,112.442z"/>
		<path fill="#d3d5bda3" d="M23.593,68.986c-0.492,0-0.921-0.364-0.989-0.865c-0.075-0.547,0.309-1.051,0.856-1.125l7.313-0.994
			c0.546-0.078,1.051,0.309,1.125,0.856c0.075,0.547-0.309,1.051-0.856,1.125l-7.313,0.994
			C23.683,68.983,23.638,68.986,23.593,68.986z"/>
		<path fill="#d3d5bda3" d="M25.352,85.941c-0.506,0-0.94-0.382-0.994-0.896c-0.057-0.549,0.342-1.041,0.891-1.098l7.582-0.789
			c0.553-0.062,1.041,0.342,1.098,0.891c0.057,0.549-0.342,1.041-0.891,1.098l-7.582,0.789
			C25.422,85.94,25.386,85.941,25.352,85.941z"/>
		<path fill="#d3d5bda3" d="M6.388,90.338c-0.407,0-0.789-0.25-0.938-0.654c-0.191-0.518,0.073-1.093,0.591-1.285l7.617-2.815
			c0.519-0.192,1.093,0.074,1.285,0.591c0.191,0.518-0.073,1.093-0.591,1.285l-7.617,2.815C6.621,90.318,6.504,90.338,6.388,90.338z
			"/>
		<path fill="#d3d5bda3" d="M6.511,103.18c-0.392,0-0.764-0.232-0.924-0.616c-0.212-0.51,0.029-1.095,0.539-1.308l6.409-2.669
			c0.51-0.211,1.096,0.029,1.308,0.539s-0.029,1.095-0.539,1.308l-6.409,2.669C6.769,103.155,6.639,103.18,6.511,103.18z"/>
		<path fill="#d3d5bda3" d="M53.493,82.802H45.95c-0.552,0-1-0.448-1-1s0.448-1,1-1h7.543c0.552,0,1,0.448,1,1S54.045,82.802,53.493,82.802z"/>
		<path fill="#d3d5bda3" d="M53.493,64.214h-5.407c-0.552,0-1-0.448-1-1s0.448-1,1-1h5.407c0.552,0,1,0.448,1,1S54.045,64.214,53.493,64.214z"/>
		<path fill="#d3d5bda3" d="M74.322,92.054c-0.044,0-0.088-0.003-0.133-0.009l-7.272-0.963c-0.547-0.072-0.933-0.575-0.86-1.123
			c0.073-0.548,0.578-0.929,1.123-0.86l7.272,0.963c0.547,0.072,0.933,0.575,0.86,1.123C75.246,91.689,74.816,92.054,74.322,92.054z
			"/>
		<path fill="#d3d5bda3" d="M76.209,74.234c-0.024,0-0.048-0.001-0.072-0.002l-6.646-0.475c-0.551-0.04-0.965-0.518-0.926-1.069
			c0.039-0.551,0.515-0.962,1.069-0.926l6.646,0.475c0.551,0.04,0.965,0.518,0.926,1.069C77.168,73.832,76.729,74.234,76.209,74.234
			z"/>
		<path fill="#d3d5bda3" d="M72.29,132.959c-0.303,0-0.603-0.137-0.799-0.397l-4.36-5.778c-0.333-0.441-0.245-1.068,0.196-1.401
			c0.442-0.332,1.068-0.245,1.401,0.196l4.36,5.778c0.333,0.441,0.245,1.068-0.196,1.4C72.711,132.893,72.499,132.959,72.29,132.959
			z"/>
		<path fill="#d3d5bda3" d="M77.727,140.826c-0.31,0-0.615-0.144-0.811-0.413l-1.991-2.748c-0.324-0.447-0.225-1.072,0.223-1.396
			c0.448-0.326,1.073-0.223,1.396,0.223l1.991,2.748c0.324,0.447,0.225,1.072-0.223,1.396
			C78.136,140.764,77.93,140.826,77.727,140.826z"/>
		<path fill="#d3d5bda3" d="M33.389,185.662c-0.063,0-0.126-0.006-0.19-0.018l-13.689-2.637c-0.239-0.047-0.453-0.178-0.602-0.37l-3.215-4.15
			c-0.338-0.437-0.258-1.064,0.178-1.403c0.436-0.338,1.063-0.26,1.403,0.179l2.984,3.853l13.319,2.564
			c0.542,0.104,0.897,0.629,0.793,1.172C34.278,185.33,33.859,185.662,33.389,185.662z"/>
		<path fill="#d3d5bda3" d="M54.738,189.933c-0.055,0-0.11-0.005-0.165-0.014l-9.042-1.508c-0.545-0.091-0.913-0.606-0.822-1.15
			c0.091-0.545,0.603-0.918,1.151-0.822l8.676,1.446l4.519-2.742c0.473-0.287,1.087-0.137,1.374,0.336
			c0.287,0.472,0.136,1.087-0.336,1.373l-4.836,2.936C55.1,189.883,54.92,189.933,54.738,189.933z"/>
		<path fill="#d3d5bda3" d="M37.665,205.365c-0.552,0-1-0.447-1-1v-10.496c0-0.553,0.448-1,1-1s1,0.447,1,1v10.496
			C38.665,204.918,38.217,205.365,37.665,205.365z"/>
		<path fill="#d3d5bda3" d="M70.684,154.046H20.581c-0.552,0-1-0.447-1-1s0.448-1,1-1h50.104c0.552,0,1,0.447,1,1S71.236,154.046,70.684,154.046z"/>
		<path fill="#d3d5bda3" d="M61.346,158.378c-2.94,0-5.332-2.392-5.332-5.332s2.392-5.332,5.332-5.332c2.939,0,5.33,2.392,5.33,5.332
			S64.285,158.378,61.346,158.378z M61.346,149.714c-1.837,0-3.332,1.495-3.332,3.332s1.495,3.332,3.332,3.332
			c1.836,0,3.33-1.495,3.33-3.332S63.183,149.714,61.346,149.714z"/>
		<path fill="#d3d5bda3" d="M48.558,148.117c-2.939,0-5.331-2.392-5.331-5.332s2.392-5.332,5.331-5.332s5.331,2.392,5.331,5.332
			S51.498,148.117,48.558,148.117z M48.558,139.453c-1.837,0-3.331,1.495-3.331,3.332s1.494,3.332,3.331,3.332
			s3.331-1.495,3.331-3.332S50.395,139.453,48.558,139.453z"/>
		<path fill="#d3d5bda3" d="M28.927,135.845c-2.939,0-5.331-2.393-5.331-5.333s2.392-5.332,5.331-5.332s5.331,2.392,5.331,5.332
			S31.867,135.845,28.927,135.845z M28.927,127.181c-1.837,0-3.331,1.495-3.331,3.332s1.494,3.333,3.331,3.333
			s3.331-1.495,3.331-3.333S30.764,127.181,28.927,127.181z"/>
		<path fill="#d3d5bda3" d="M48.557,164.896c-0.552,0-1-0.447-1-1V146.82c0-0.553,0.448-1,1-1s1,0.447,1,1v17.076
			C49.557,164.449,49.11,164.896,48.557,164.896z"/>
		<path fill="#d3d5bda3" d="M43.178,157.293c-0.552,0-1-0.447-1-1v-6.492c0-0.553,0.448-1,1-1s1,0.447,1,1v6.492
			C44.178,156.845,43.731,157.293,43.178,157.293z"/>
		<path fill="#d3d5bda3" d="M37.667,157.293c-0.552,0-1-0.447-1-1v-6.492c0-0.553,0.448-1,1-1s1,0.447,1,1v6.492
			C38.667,156.845,38.219,157.293,37.667,157.293z"/>
		<path fill="#d3d5bda3" d="M51.381,164.896h-5.647c-0.552,0-1-0.447-1-1s0.448-1,1-1h5.647c0.552,0,1,0.447,1,1S51.934,164.896,51.381,164.896z"/>
		<path fill="#d3d5bda3" d="M28.926,158.378c-0.552,0-1-0.447-1-1v-22.256c0-0.553,0.448-1,1-1s1,0.447,1,1v22.256
			C29.926,157.931,29.479,158.378,28.926,158.378z"/>
		<path fill="#d3d5bda3" d="M48.558,139.453c-0.552,0-1-0.447-1-1V117.24c0-0.552,0.448-1,1-1h8.456c0.552,0,1,0.448,1,1v5.377c0,0.552-0.448,1-1,1
			s-1-0.448-1-1v-4.377h-6.456v20.213C49.558,139.005,49.11,139.453,48.558,139.453z"/>
	</g>
	<g>
		<g>
			<path fill="#d3d5bda3" d="M235.876,205.365h-43.09c-0.553,0-1-0.447-1-1v-17.917l-18.382-16.302c-0.132-0.116-0.23-0.266-0.285-0.432
				l-5.979-17.934l-18.69-16.182c-0.046-0.039-0.088-0.083-0.126-0.13l-14.201-17.696c-0.172-0.215-0.248-0.491-0.21-0.764
				s0.187-0.518,0.411-0.677c0.141-0.099,3.483-2.429,8.683-2.429c5.515,0,13.865,2.701,22.401,15.534l10.91,6.308l2.753-4.091
				v-21.941c-0.076-0.334-0.126-0.626-0.155-0.911l-5.188-48.953c-0.224-2.107,0.387-4.175,1.72-5.823
				c1.332-1.647,3.227-2.678,5.333-2.901c4.415-0.463,8.267,2.728,8.723,7.053l4.869,45.942c1.133-0.155,2.289-0.29,3.496-0.406
				V54.932c0-4.374,3.559-7.933,7.932-7.933c4.375,0,7.934,3.559,7.934,7.933v48.73c0.783,0.075,1.568,0.162,2.349,0.26
				l5.219-44.164c0.508-4.301,4.42-7.46,8.808-6.947c4.345,0.514,7.461,4.465,6.948,8.808l-5.434,45.982
				c0.16,0.058,0.317,0.115,0.474,0.173l7.432-30.207c0.717-2.918,3.315-4.957,6.317-4.957c0.522,0,1.047,0.064,1.558,0.189
				c1.69,0.416,3.116,1.464,4.016,2.952c0.9,1.487,1.167,3.237,0.75,4.925l-9.346,37.993c-0.13,0.529-0.343,1.051-0.648,1.591
				v49.138c0,0.188-0.053,0.371-0.152,0.53l-5.146,8.233v26.203C236.876,204.918,236.428,205.365,235.876,205.365z M193.786,203.365
				h41.09v-25.49c0-0.188,0.053-0.371,0.152-0.53l5.146-8.233v-49.124c0-0.185,0.051-0.365,0.147-0.523
				c0.28-0.457,0.458-0.861,0.56-1.273l9.346-37.993c0.288-1.17,0.104-2.382-0.52-3.412s-1.611-1.756-2.782-2.044
				c-0.354-0.087-0.719-0.132-1.08-0.132c-2.079,0-3.879,1.412-4.376,3.434l-7.701,31.304c-0.068,0.28-0.255,0.516-0.51,0.649
				c-0.257,0.132-0.557,0.149-0.824,0.044c-0.699-0.273-1.441-0.546-2.225-0.817c-0.444-0.154-0.722-0.596-0.667-1.063l5.527-46.776
				c0.384-3.249-1.947-6.204-5.196-6.587c-3.3-0.393-6.207,1.979-6.587,5.195l-5.338,45.171c-0.031,0.267-0.169,0.51-0.382,0.674
				c-0.214,0.164-0.485,0.236-0.749,0.199c-1.386-0.193-2.795-0.35-4.189-0.466c-0.54-0.045-0.946-0.512-0.915-1.053l0.009-0.136
				c0.005-0.073,0.011-0.146,0.011-0.22v-49.23c0-3.271-2.662-5.933-5.934-5.933c-3.271,0-5.932,2.661-5.932,5.933v49.23
				c0,0.098,0.008,0.195,0.015,0.291l0.007,0.106c0.034,0.542-0.37,1.013-0.911,1.06c-1.886,0.165-3.634,0.369-5.343,0.626
				c-0.269,0.04-0.544-0.03-0.76-0.198c-0.216-0.167-0.354-0.415-0.383-0.686l-4.979-46.974c-0.343-3.235-3.234-5.634-6.523-5.274
				c-1.576,0.167-2.992,0.937-3.989,2.169c-0.996,1.232-1.453,2.779-1.286,4.354l5.189,48.957c0.027,0.266,0.078,0.519,0.139,0.769
				c0.019,0.077,0.027,0.155,0.027,0.233v22.362c0,0.199-0.06,0.394-0.17,0.559l-3.445,5.119c-0.293,0.436-0.874,0.574-1.331,0.307
				l-11.922-6.893c-0.134-0.078-0.248-0.186-0.334-0.314c-8.091-12.26-15.811-14.833-20.862-14.833
				c-3.062,0-5.386,0.916-6.595,1.526l13.416,16.718l18.829,16.302c0.136,0.117,0.237,0.27,0.294,0.439l5.98,17.939l18.518,16.422
				c0.215,0.189,0.337,0.462,0.337,0.748v17.368H193.786z"/>
			<path fill="#d3d5bda3" d="M221.953,106.716c-0.069,0-0.139-0.007-0.209-0.022c-0.102-0.022-10.138-2.126-16.409-0.677
				c-0.534,0.122-1.074-0.212-1.199-0.75c-0.124-0.538,0.212-1.075,0.75-1.199c6.708-1.547,16.847,0.579,17.274,0.67
				c0.54,0.115,0.885,0.646,0.77,1.187C222.83,106.394,222.415,106.716,221.953,106.716z"/>
			<path fill="#d3d5bda3" d="M236.552,112.442c-0.196,0-0.395-0.058-0.568-0.178c-4.598-3.183-9.016-3.59-9.061-3.594
				c-0.549-0.047-0.958-0.529-0.913-1.079c0.047-0.55,0.539-0.966,1.077-0.914c0.2,0.016,4.974,0.439,10.035,3.942
				c0.454,0.314,0.567,0.938,0.253,1.392C237.182,112.292,236.87,112.442,236.552,112.442z"/>
			<path fill="#d3d5bda3" d="M228.768,68.986c-0.045,0-0.09-0.003-0.136-0.009l-7.314-0.994c-0.547-0.074-0.931-0.578-0.856-1.125
				c0.074-0.547,0.579-0.932,1.126-0.856l7.314,0.994c0.547,0.074,0.931,0.578,0.856,1.125
				C229.689,68.623,229.26,68.986,228.768,68.986z"/>
			<path fill="#d3d5bda3" d="M227.007,85.941c-0.034,0-0.069-0.001-0.104-0.005l-7.582-0.789c-0.549-0.057-0.948-0.549-0.892-1.098
				s0.542-0.955,1.099-0.891l7.582,0.789c0.549,0.057,0.948,0.549,0.892,1.098C227.949,85.559,227.514,85.941,227.007,85.941z"/>
			<path fill="#d3d5bda3" d="M245.971,90.338c-0.115,0-0.232-0.02-0.347-0.063l-7.617-2.815c-0.518-0.191-0.783-0.767-0.592-1.285
				c0.191-0.519,0.77-0.784,1.285-0.591l7.617,2.815c0.518,0.191,0.783,0.767,0.592,1.285
				C246.76,90.088,246.378,90.338,245.971,90.338z"/>
			<path fill="#d3d5bda3" d="M245.85,103.18c-0.129,0-0.259-0.025-0.385-0.077l-6.41-2.669c-0.51-0.212-0.751-0.798-0.538-1.308
				c0.213-0.51,0.8-0.749,1.308-0.539l6.41,2.669c0.51,0.212,0.751,0.798,0.538,1.308C246.613,102.948,246.242,103.18,245.85,103.18
				z"/>
			<path fill="#d3d5bda3" d="M206.411,82.802h-7.543c-0.553,0-1-0.448-1-1s0.447-1,1-1h7.543c0.553,0,1,0.448,1,1S206.964,82.802,206.411,82.802z"/>
			<path fill="#d3d5bda3" d="M204.274,64.214h-5.406c-0.553,0-1-0.448-1-1s0.447-1,1-1h5.406c0.553,0,1,0.448,1,1S204.827,64.214,204.274,64.214z"/>
			<path fill="#d3d5bda3" d="M178.039,92.054c-0.494,0-0.924-0.366-0.99-0.869c-0.072-0.547,0.313-1.05,0.86-1.123l7.271-0.963
				c0.536-0.073,1.05,0.312,1.122,0.86c0.072,0.547-0.313,1.05-0.86,1.123l-7.271,0.963
				C178.128,92.051,178.082,92.054,178.039,92.054z"/>
			<path fill="#d3d5bda3" d="M176.152,74.234c-0.52,0-0.959-0.402-0.996-0.929c-0.04-0.551,0.375-1.029,0.926-1.069l6.646-0.475
				c0.559-0.04,1.029,0.375,1.068,0.926c0.04,0.551-0.375,1.029-0.926,1.069l-6.646,0.475
				C176.201,74.233,176.175,74.234,176.152,74.234z"/>
			<path fill="#d3d5bda3" d="M180.07,132.959c-0.21,0-0.421-0.065-0.602-0.202c-0.44-0.332-0.528-0.96-0.195-1.4l4.361-5.778
				c0.332-0.441,0.959-0.527,1.4-0.196c0.44,0.333,0.528,0.96,0.195,1.401l-4.361,5.778
				C180.673,132.822,180.373,132.959,180.07,132.959z"/>
			<path fill="#d3d5bda3" d="M174.632,140.826c-0.203,0-0.408-0.062-0.586-0.19c-0.447-0.324-0.547-0.949-0.223-1.396l1.992-2.748
				c0.323-0.447,0.947-0.548,1.396-0.223c0.447,0.324,0.547,0.949,0.223,1.396l-1.992,2.748
				C175.248,140.682,174.942,140.826,174.632,140.826z"/>
			<path fill="#d3d5bda3" d="M218.97,185.662c-0.47,0-0.889-0.332-0.981-0.811c-0.104-0.543,0.251-1.067,0.793-1.172l13.319-2.564l2.983-3.853
				c0.339-0.438,0.966-0.516,1.403-0.179c0.437,0.339,0.517,0.967,0.179,1.403l-3.215,4.15c-0.149,0.192-0.363,0.323-0.602,0.37
				l-13.689,2.637C219.096,185.656,219.033,185.662,218.97,185.662z"/>
			<path fill="#d3d5bda3" d="M197.622,189.933c-0.182,0-0.361-0.05-0.519-0.146l-4.836-2.936c-0.473-0.286-0.623-0.901-0.336-1.373
				c0.286-0.473,0.9-0.623,1.373-0.336l4.519,2.742l8.678-1.446c0.543-0.098,1.061,0.277,1.15,0.822
				c0.091,0.544-0.277,1.06-0.822,1.15l-9.043,1.508C197.731,189.928,197.676,189.933,197.622,189.933z"/>
			<path fill="#d3d5bda3" d="M214.697,205.365c-0.553,0-1-0.447-1-1v-10.496c0-0.553,0.447-1,1-1s1,0.447,1,1v10.496
				C215.697,204.918,215.249,205.365,214.697,205.365z"/>
		</g>
		<g>
			<path fill="#d3d5bda3" d="M212.331,132.181c-3.034,0-5.502-2.468-5.502-5.502s2.468-5.502,5.502-5.502s5.502,2.468,5.502,5.502
				C217.833,129.713,215.365,132.181,212.331,132.181z M212.331,123.177c-1.931,0-3.502,1.571-3.502,3.502
				c0,1.931,1.571,3.502,3.502,3.502s3.502-1.571,3.502-3.502S214.261,123.177,212.331,123.177z"/>
			<path fill="#d3d5bda3" d="M212.331,144.347c-3.034,0-5.502-2.468-5.502-5.502s2.468-5.502,5.502-5.502s5.502,2.468,5.502,5.502
				S215.365,144.347,212.331,144.347z M212.331,135.343c-1.931,0-3.502,1.571-3.502,3.502s1.571,3.502,3.502,3.502
				s3.502-1.571,3.502-3.502S214.261,135.343,212.331,135.343z"/>
			<path fill="#d3d5bda3" d="M212.331,156.515c-3.034,0-5.502-2.468-5.502-5.502s2.468-5.502,5.502-5.502s5.502,2.468,5.502,5.502
				S215.365,156.515,212.331,156.515z M212.331,147.511c-1.931,0-3.502,1.571-3.502,3.502s1.571,3.502,3.502,3.502
				s3.502-1.571,3.502-3.502S214.261,147.511,212.331,147.511z"/>
			<path fill="#d3d5bda3" d="M212.331,135.343c-0.553,0-1-0.447-1-1v-3.162c0-0.553,0.447-1,1-1s1,0.447,1,1v3.162
				C213.331,134.896,212.883,135.343,212.331,135.343z"/>
			<path fill="#d3d5bda3" d="M212.331,123.177c-0.553,0-1-0.448-1-1V116.4c0-0.552,0.447-1,1-1s1,0.448,1,1v5.777
				C213.331,122.729,212.883,123.177,212.331,123.177z"/>
			<path fill="#d3d5bda3" d="M212.331,147.511c-0.553,0-1-0.447-1-1v-3.164c0-0.553,0.447-1,1-1s1,0.447,1,1v3.164
				C213.331,147.064,212.883,147.511,212.331,147.511z"/>
			<path fill="#d3d5bda3" d="M212.331,169.486c-0.553,0-1-0.447-1-1v-12.971c0-0.553,0.447-1,1-1s1,0.447,1,1v12.971
				C213.331,169.039,212.883,169.486,212.331,169.486z"/>
			<path fill="#d3d5bda3" d="M215.096,117.321h-5.531c-0.553,0-1-0.448-1-1s0.447-1,1-1h5.531c0.553,0,1,0.448,1,1S215.649,117.321,215.096,117.321z"
				/>
			<path fill="#d3d5bda3" d="M223.497,139.845h-6.664c-0.553,0-1-0.447-1-1s0.447-1,1-1h5.664v-12.69c0-0.552,0.447-1,1-1s1,0.448,1,1v13.69
				C224.497,139.398,224.049,139.845,223.497,139.845z"/>
			<path fill="#d3d5bda3" d="M226.723,128.614h-6.559c-0.553,0-1-0.448-1-1s0.447-1,1-1h6.559c0.553,0,1,0.448,1,1S227.276,128.614,226.723,128.614z"
				/>
			<path fill="#d3d5bda3" d="M226.723,133.001h-6.559c-0.553,0-1-0.447-1-1s0.447-1,1-1h6.559c0.553,0,1,0.447,1,1S227.276,133.001,226.723,133.001z"
				/>
			<path fill="#d3d5bda3" d="M216.94,166.412h-9.219c-0.553,0-1-0.447-1-1s0.447-1,1-1h9.219c0.553,0,1,0.447,1,1S217.493,166.412,216.94,166.412z"/>
			<path fill="#d3d5bda3" d="M207.274,140.761h-5.369c-0.295,0-0.575-0.13-0.765-0.356s-0.271-0.523-0.221-0.814l0.984-5.688
				c-0.043-2.201-1.847-3.978-4.058-3.978c-2.239,0-4.061,1.821-4.061,4.059c0,0.553-0.447,1-1,1s-1-0.447-1-1
				c0-3.341,2.719-6.059,6.061-6.059c3.341,0,6.059,2.718,6.059,6.059c0,0.058-0.005,0.114-0.015,0.171l-0.798,4.606h4.182
				c0.553,0,1,0.447,1,1S207.827,140.761,207.274,140.761z"/>
		</g>
	</g>
</g>
<g>
</g>
<g>
</g>
<g>
</g>
<g>
</g>
<g>
</g>
<g>
</g>
<g>
</g>
<g>
</g>
<g>
</g>
<g>
</g>
<g>
</g>
<g>
</g>
<g>
</g>
<g>
</g>
<g>
</g>
</svg>
