<?xml version="1.0" encoding="iso-8859-1"?>
<!-- Generator: Adobe Illustrator 19.0.0, SVG Export Plug-In . SVG Version: 6.00 Build 0)  -->
<svg version="1.1" id="Layer_1" xmlns="http://www.w3.org/2000/svg" xmlns:xlink="http://www.w3.org/1999/xlink" x="0px" y="0px"
	 viewBox="0 0 251.792 251.792" style="enable-background:new 0 0 251.792 251.792;" xml:space="preserve">
<g>
	<g>
		<circle style="fill:#F2E5A2;" cx="125.896" cy="125.873" r="71.859"/>
		<path d="M125.898,198.732c-40.175,0-72.86-32.685-72.86-72.859s32.685-72.859,72.86-72.859c40.174,0,72.857,32.685,72.857,72.859
			S166.071,198.732,125.898,198.732z M125.898,55.013c-39.073,0-70.86,31.787-70.86,70.859s31.788,70.859,70.86,70.859
			c39.071,0,70.857-31.787,70.857-70.859S164.969,55.013,125.898,55.013z"/>
	</g>
	<g>
		<circle style="fill:#F2E5A2;" cx="125.896" cy="125.873" r="62.5"/>
		<path d="M125.898,189.373c-35.015,0-63.501-28.486-63.501-63.5s28.486-63.5,63.501-63.5c35.013,0,63.498,28.486,63.498,63.5
			S160.91,189.373,125.898,189.373z M125.898,64.373c-33.912,0-61.501,27.589-61.501,61.5s27.589,61.5,61.501,61.5
			c33.91,0,61.498-27.589,61.498-61.5S159.808,64.373,125.898,64.373z"/>
	</g>
	<path d="M127.974,241.252l-7.778-7.778l1.414-1.414l6.364,6.364l1.659-1.659l1.414,1.414L127.974,241.252z M138.118,231.107
		l-1.414-1.414l7.07-7.071l1.414,1.414L138.118,231.107z M113.125,226.402l-7.071-7.07l1.414-1.414l7.071,7.07L113.125,226.402z
		 M152.26,216.964l-1.414-1.414l7.071-7.07l1.414,1.414L152.26,216.964z M98.983,212.26l-7.071-7.071l1.414-1.414l7.071,7.071
		L98.983,212.26z M166.402,202.823l-1.414-1.414l7.07-7.071l1.414,1.414L166.402,202.823z M84.84,198.118l-7.071-7.071l1.414-1.414
		l7.071,7.071L84.84,198.118z M180.544,188.68l-1.414-1.414l7.071-7.071l1.414,1.414L180.544,188.68z M70.698,183.975l-7.071-7.07
		l1.414-1.414l7.071,7.07L70.698,183.975z M194.686,174.538l-1.414-1.414l7.071-7.07l1.414,1.414L194.686,174.538z M56.556,169.834
		l-7.071-7.071l1.414-1.414l7.071,7.071L56.556,169.834z M208.828,160.396l-1.414-1.414l7.07-7.071l1.414,1.414L208.828,160.396z
		 M42.415,155.691l-7.071-7.071l1.414-1.414l7.071,7.071L42.415,155.691z M222.97,146.254l-1.414-1.414l7.071-7.071l1.414,1.414
		L222.97,146.254z M28.273,141.549l-7.071-7.071l1.414-1.414l7.071,7.071L28.273,141.549z M237.112,132.111l-1.414-1.414
		l2.512-2.512l-3.145-3.145l1.414-1.414l4.559,4.559L237.112,132.111z M14.131,127.407l-3.376-3.376l5.109-5.109l1.414,1.414
		l-3.695,3.695l1.962,1.962L14.131,127.407z M227.994,117.969l-7.071-7.071l1.414-1.414l7.071,7.071L227.994,117.969z
		 M24.349,113.264l-1.414-1.414l7.071-7.071l1.414,1.414L24.349,113.264z M213.853,103.827l-7.071-7.071l1.414-1.414l7.071,7.071
		L213.853,103.827z M38.491,99.123l-1.414-1.414l7.071-7.071l1.414,1.414L38.491,99.123z M199.71,89.684l-7.071-7.07l1.414-1.414
		l7.071,7.07L199.71,89.684z M52.633,84.98l-1.414-1.414l7.071-7.071l1.414,1.414L52.633,84.98z M185.569,75.543l-7.071-7.071
		l1.414-1.414l7.071,7.071L185.569,75.543z M66.775,70.837l-1.414-1.414l7.071-7.071l1.414,1.414L66.775,70.837z M171.426,61.4
		l-7.07-7.071l1.414-1.414l7.07,7.071L171.426,61.4z M80.917,56.696l-1.414-1.414l7.071-7.071l1.414,1.414L80.917,56.696z
		 M157.284,47.257l-7.071-7.07l1.414-1.414l7.071,7.07L157.284,47.257z M95.059,42.553l-1.414-1.414l7.071-7.071l1.414,1.414
		L95.059,42.553z M143.142,33.116l-7.07-7.071l1.414-1.414l7.07,7.071L143.142,33.116z M109.201,28.411l-1.414-1.414l7.071-7.07
		l1.414,1.414L109.201,28.411z M129,18.973l-5.181-5.181l-0.477,0.477l-1.414-1.414l1.891-1.891l6.595,6.595L129,18.973z"/>
	<g>
		<polygon style="fill:#F2E5A2;" points="123.353,1.285 126.804,8.279 134.521,9.4 128.935,14.843 130.255,22.531 123.353,18.9 
			116.448,22.531 117.767,14.843 112.185,9.4 119.901,8.279 		"/>
		<path d="M130.255,23.531c-0.159,0-0.319-0.038-0.466-0.115l-6.437-3.386l-6.438,3.386c-0.336,0.178-0.745,0.148-1.054-0.076
			c-0.308-0.224-0.462-0.603-0.397-0.978l1.229-7.17l-5.206-5.076c-0.272-0.266-0.37-0.663-0.253-1.025
			c0.118-0.361,0.431-0.625,0.808-0.68l7.196-1.046l3.219-6.522c0.336-0.684,1.457-0.684,1.793,0l3.219,6.522l7.196,1.046
			c0.377,0.055,0.689,0.318,0.808,0.681c0.117,0.361,0.02,0.759-0.253,1.024l-5.21,5.076l1.231,7.17
			c0.064,0.375-0.09,0.754-0.397,0.978C130.668,23.466,130.462,23.531,130.255,23.531z M114.333,10.098l4.132,4.029
			c0.235,0.229,0.343,0.561,0.287,0.885l-0.976,5.69l5.11-2.688c0.293-0.154,0.639-0.154,0.932,0l5.107,2.687l-0.977-5.689
			c-0.056-0.324,0.052-0.655,0.287-0.885l4.135-4.029l-5.711-0.83c-0.326-0.047-0.607-0.252-0.753-0.547l-2.555-5.177l-2.555,5.177
			c-0.146,0.295-0.427,0.5-0.753,0.547L114.333,10.098z"/>
	</g>
	<g>
		<polygon style="fill:#F2E5A2;" points="126.927,229.214 130.374,236.209 138.095,237.33 132.507,242.773 133.827,250.461 
			126.927,246.83 120.023,250.461 121.341,242.773 115.757,237.33 123.476,236.209 		"/>
		<path d="M120.023,251.461c-0.207,0-0.413-0.064-0.588-0.191c-0.308-0.224-0.462-0.603-0.397-0.978l1.229-7.17l-5.208-5.076
			c-0.272-0.266-0.37-0.663-0.253-1.024c0.118-0.362,0.431-0.626,0.808-0.681l7.198-1.046l3.219-6.522
			c0.168-0.342,0.516-0.558,0.896-0.558l0,0c0.381,0,0.729,0.217,0.897,0.558l3.214,6.522l7.2,1.046
			c0.377,0.055,0.689,0.318,0.808,0.681c0.117,0.361,0.02,0.759-0.253,1.025l-5.212,5.076l1.231,7.169
			c0.064,0.375-0.09,0.754-0.397,0.978c-0.309,0.226-0.716,0.255-1.054,0.076l-6.435-3.386l-6.438,3.386
			C120.342,251.422,120.182,251.461,120.023,251.461z M117.906,238.028l4.133,4.029c0.235,0.229,0.343,0.561,0.287,0.885
			l-0.976,5.69l5.11-2.688c0.293-0.154,0.641-0.154,0.932,0l5.105,2.687l-0.977-5.689c-0.056-0.324,0.052-0.655,0.287-0.885
			l4.136-4.029l-5.714-0.83c-0.326-0.047-0.607-0.252-0.753-0.547l-2.552-5.176l-2.554,5.176c-0.146,0.295-0.427,0.5-0.753,0.547
			L117.906,238.028z"/>
	</g>
	<g>
		<polygon style="fill:#F2E5A2;" points="239.624,117.568 243.073,124.562 250.792,125.681 245.204,131.125 246.526,138.812 
			239.624,135.183 232.718,138.812 234.036,131.125 228.454,125.681 236.171,124.562 		"/>
		<path d="M232.718,139.812c-0.207,0-0.414-0.064-0.588-0.191c-0.308-0.224-0.462-0.603-0.397-0.978l1.229-7.17l-5.206-5.076
			c-0.272-0.266-0.37-0.663-0.253-1.025c0.118-0.361,0.431-0.625,0.808-0.68l7.196-1.044l3.221-6.522
			c0.168-0.342,0.516-0.558,0.896-0.558l0,0c0.381,0,0.729,0.216,0.896,0.558l3.217,6.522l7.198,1.044
			c0.377,0.055,0.689,0.318,0.808,0.681c0.117,0.361,0.02,0.759-0.253,1.025l-5.211,5.075l1.232,7.169
			c0.064,0.376-0.09,0.755-0.397,0.979c-0.307,0.225-0.716,0.254-1.054,0.076l-6.437-3.384l-6.441,3.384
			C233.037,139.774,232.877,139.812,232.718,139.812z M230.604,126.38l4.131,4.028c0.235,0.229,0.343,0.561,0.287,0.885
			l-0.976,5.691l5.113-2.687c0.291-0.154,0.638-0.154,0.931,0l5.107,2.686l-0.979-5.689c-0.056-0.325,0.052-0.656,0.287-0.887
			l4.136-4.028l-5.712-0.828c-0.326-0.047-0.607-0.252-0.753-0.547l-2.554-5.177l-2.556,5.177c-0.146,0.296-0.427,0.5-0.753,0.547
			L230.604,126.38z"/>
	</g>
	<g>
		<polygon style="fill:#F2E5A2;" points="12.17,116.636 15.618,123.632 23.338,124.752 17.751,130.195 19.071,137.882 
			12.17,134.253 5.264,137.882 6.583,130.195 0.999,124.752 8.716,123.632 		"/>
		<path d="M19.071,138.882c-0.159,0-0.319-0.038-0.465-0.115l-6.436-3.384l-6.44,3.384c-0.337,0.178-0.746,0.148-1.053-0.076
			c-0.308-0.224-0.462-0.603-0.398-0.978l1.23-7.17l-5.207-5.076c-0.272-0.266-0.371-0.663-0.253-1.025
			c0.118-0.361,0.431-0.625,0.808-0.68l7.197-1.044l3.221-6.524c0.168-0.342,0.516-0.558,0.896-0.558l0,0
			c0.38,0,0.728,0.217,0.896,0.558l3.216,6.524l7.199,1.044c0.377,0.055,0.69,0.318,0.808,0.681c0.118,0.361,0.02,0.759-0.253,1.024
			l-5.21,5.077l1.231,7.169c0.064,0.375-0.089,0.754-0.397,0.978C19.485,138.818,19.278,138.882,19.071,138.882z M3.149,125.451
			l4.132,4.028c0.235,0.229,0.343,0.561,0.288,0.885l-0.977,5.691l5.112-2.687c0.292-0.154,0.64-0.154,0.931,0l5.107,2.686
			l-0.977-5.69c-0.056-0.324,0.052-0.655,0.288-0.885l4.135-4.029l-5.713-0.828c-0.326-0.047-0.608-0.252-0.753-0.547l-2.552-5.178
			l-2.556,5.178c-0.146,0.296-0.427,0.5-0.753,0.547L3.149,125.451z"/>
	</g>
	<path d="M208.784,205.822h-11v-2h9v-2.347h2V205.822z M187.784,205.822h-10v-2h10V205.822z M167.784,205.822h-10v-2h10V205.822z
		 M147.784,205.822h-10v-2h10V205.822z M127.784,205.822h-10v-2h10V205.822z M107.784,205.822h-10v-2h10V205.822z M87.784,205.822
		h-10v-2h10V205.822z M67.784,205.822h-10v-2h10V205.822z M47.784,205.822h-4.775v-7.225h2v5.225h2.775V205.822z M208.784,191.475
		h-2v-10h2V191.475z M45.009,188.597h-2v-10h2V188.597z M208.784,171.475h-2v-10h2V171.475z M45.009,168.597h-2v-10h2V168.597z
		 M208.784,151.475h-2v-10h2V151.475z M45.009,148.597h-2v-10h2V148.597z M208.784,131.475h-2v-10h2V131.475z M45.009,128.597h-2
		v-10h2V128.597z M208.784,111.475h-2v-10h2V111.475z M45.009,108.597h-2v-10h2V108.597z M208.784,91.475h-2v-10h2V91.475z
		 M45.009,88.597h-2v-10h2V88.597z M208.784,71.475h-2v-10h2V71.475z M45.009,68.597h-2v-10h2V68.597z M208.784,51.475h-2v-3.552
		h-4.448v-2h6.448V51.475z M45.009,48.597h-2v-2.674h9.327v2h-7.327V48.597z M192.336,47.923h-10v-2h10V47.923z M172.336,47.923h-10
		v-2h10V47.923z M152.336,47.923h-10v-2h10V47.923z M132.336,47.923h-10v-2h10V47.923z M112.336,47.923h-10v-2h10V47.923z
		 M92.336,47.923h-10v-2h10V47.923z M72.336,47.923h-10v-2h10V47.923z"/>
	<g>
		<g>
			<polygon style="fill:#F2E5A2;" points="44.009,36.3 47.461,43.295 55.179,44.416 49.594,49.859 50.912,57.545 44.009,53.918 
				37.107,57.545 38.425,49.859 32.841,44.416 40.558,43.295 			"/>
			<path d="M37.107,58.545c-0.208,0-0.414-0.064-0.588-0.191c-0.308-0.224-0.462-0.603-0.398-0.978l1.229-7.168l-5.208-5.076
				c-0.272-0.266-0.371-0.663-0.253-1.024c0.118-0.362,0.431-0.626,0.808-0.681l7.197-1.046l3.218-6.522
				c0.337-0.684,1.457-0.684,1.794,0l3.219,6.522l7.197,1.046c0.377,0.055,0.69,0.318,0.808,0.681
				c0.118,0.361,0.02,0.759-0.253,1.024l-5.208,5.077l1.229,7.167c0.064,0.375-0.09,0.754-0.398,0.978
				c-0.308,0.225-0.715,0.254-1.053,0.076l-6.438-3.382l-6.437,3.382C37.426,58.506,37.266,58.545,37.107,58.545z M44.009,52.918
				c0.16,0,0.319,0.038,0.465,0.115l5.109,2.685l-0.976-5.689c-0.055-0.324,0.052-0.655,0.288-0.885l4.133-4.029l-5.712-0.83
				c-0.326-0.047-0.607-0.252-0.753-0.547l-2.555-5.177l-2.554,5.177c-0.146,0.295-0.427,0.5-0.753,0.547l-5.712,0.83l4.134,4.029
				c0.235,0.229,0.343,0.561,0.288,0.885l-0.976,5.689l5.109-2.685C43.69,52.956,43.85,52.918,44.009,52.918z"/>
		</g>
		<g>
			<polygon style="fill:#F2E5A2;" points="207.784,36.3 211.234,43.295 218.952,44.416 213.366,49.859 214.685,57.545 
				207.784,53.918 200.88,57.545 202.198,49.859 196.614,44.416 204.331,43.295 			"/>
			<path d="M214.685,58.545c-0.159,0-0.319-0.038-0.465-0.115l-6.436-3.382l-6.439,3.383c-0.336,0.176-0.745,0.147-1.053-0.077
				s-0.462-0.603-0.397-0.978l1.229-7.168l-5.208-5.076c-0.272-0.266-0.37-0.663-0.253-1.024c0.118-0.362,0.431-0.626,0.808-0.681
				l7.196-1.046l3.221-6.522c0.168-0.342,0.516-0.558,0.896-0.558l0,0c0.381,0,0.729,0.216,0.896,0.558l3.217,6.522l7.198,1.046
				c0.377,0.055,0.689,0.318,0.808,0.681c0.117,0.361,0.02,0.759-0.253,1.024l-5.21,5.077l1.229,7.167
				c0.064,0.375-0.09,0.754-0.397,0.978C215.099,58.48,214.892,58.545,214.685,58.545z M198.764,45.114l4.133,4.029
				c0.235,0.229,0.343,0.561,0.287,0.885l-0.976,5.689l5.111-2.686c0.291-0.152,0.639-0.153,0.93,0.001l5.107,2.684l-0.976-5.688
				c-0.056-0.324,0.052-0.655,0.287-0.885l4.135-4.029l-5.713-0.83c-0.326-0.047-0.607-0.252-0.753-0.547l-2.554-5.177l-2.556,5.177
				c-0.146,0.295-0.427,0.5-0.753,0.547L198.764,45.114z"/>
		</g>
		<g>
			<polygon style="fill:#F2E5A2;" points="207.784,194.201 211.234,201.193 218.952,202.316 213.366,207.759 214.685,215.445 
				207.784,211.818 200.88,215.445 202.198,207.759 196.614,202.316 204.331,201.193 			"/>
			<path d="M214.685,216.445c-0.159,0-0.319-0.038-0.465-0.115l-6.436-3.382l-6.439,3.383c-0.336,0.177-0.745,0.148-1.053-0.077
				c-0.308-0.224-0.462-0.603-0.397-0.978l1.229-7.168l-5.208-5.076c-0.272-0.266-0.37-0.663-0.253-1.024
				c0.117-0.362,0.431-0.626,0.808-0.681l7.196-1.048l3.221-6.521c0.168-0.342,0.516-0.558,0.896-0.558l0,0
				c0.381,0,0.729,0.216,0.896,0.558l3.217,6.521l7.198,1.048c0.377,0.055,0.69,0.318,0.808,0.681
				c0.117,0.361,0.02,0.759-0.253,1.024l-5.21,5.077l1.229,7.167c0.064,0.375-0.09,0.754-0.397,0.978
				C215.099,216.38,214.892,216.445,214.685,216.445z M198.763,203.014l4.134,4.029c0.235,0.229,0.343,0.561,0.287,0.885
				l-0.976,5.689l5.111-2.686c0.291-0.152,0.639-0.153,0.93,0.001l5.107,2.684l-0.976-5.688c-0.056-0.324,0.052-0.655,0.287-0.885
				l4.135-4.029l-5.713-0.832c-0.326-0.047-0.607-0.252-0.753-0.547l-2.554-5.175l-2.556,5.175c-0.146,0.295-0.427,0.5-0.753,0.547
				L198.763,203.014z"/>
		</g>
		<g>
			<polygon style="fill:#F2E5A2;" points="44.009,194.201 47.461,201.193 55.178,202.316 49.594,207.759 50.913,215.445 
				44.009,211.818 37.107,215.445 38.425,207.759 32.841,202.316 40.558,201.193 			"/>
			<path d="M37.107,216.445c-0.208,0-0.414-0.064-0.588-0.191c-0.308-0.224-0.462-0.603-0.397-0.978l1.229-7.168l-5.208-5.076
				c-0.272-0.266-0.371-0.663-0.253-1.024c0.118-0.362,0.431-0.626,0.807-0.681l7.197-1.048l3.219-6.521
				c0.336-0.683,1.456-0.685,1.793,0l3.219,6.521l7.197,1.048c0.376,0.055,0.689,0.318,0.807,0.681
				c0.118,0.361,0.02,0.759-0.253,1.024l-5.208,5.076l1.229,7.168c0.064,0.375-0.089,0.754-0.397,0.978
				c-0.308,0.225-0.716,0.254-1.053,0.076l-6.438-3.382l-6.438,3.382C37.425,216.407,37.266,216.445,37.107,216.445z
				 M44.009,210.818c0.16,0,0.319,0.038,0.465,0.115l5.11,2.685l-0.976-5.689c-0.056-0.324,0.052-0.655,0.287-0.885l4.134-4.029
				l-5.713-0.832c-0.326-0.047-0.607-0.252-0.752-0.547l-2.555-5.176l-2.555,5.176c-0.146,0.295-0.427,0.5-0.752,0.547l-5.712,0.832
				l4.134,4.029c0.235,0.229,0.343,0.561,0.287,0.885l-0.976,5.689l5.109-2.685C43.69,210.856,43.85,210.818,44.009,210.818z"/>
		</g>
	</g>
	<g>
		<path style="fill:#F2E5A2;" d="M109.333,152.582l3.27-2.359l0.24-2.973l-1.611-1.729l2.154-1.568l-0.795-2.895l-2.877-1.219
			l-0.385-2.705l9.52-4.484l-9.9-19.621l3.779-3.959l-1.141-14.217c7.535-13.141,19.705-23.283,34.283-28.199
			c-6.275-2.117-12.986-3.281-19.973-3.281c-34.518,0-62.501,27.982-62.501,62.5s27.983,62.5,62.501,62.5
			c6.986,0,13.697-1.164,19.973-3.279C129.734,179.652,116.548,167.808,109.333,152.582z"/>
		<path d="M125.898,189.373c-35.015,0-63.501-28.486-63.501-63.5s28.486-63.5,63.501-63.5c6.908,0,13.735,1.122,20.292,3.334
			l2.81,0.947l-2.81,0.947c-14.151,4.772-26.065,14.526-33.581,27.482l1.151,14.353l-3.601,3.772l10.045,19.908l-9.781,4.607
			l0.201,1.415l2.803,1.188l1.106,4.027l-1.801,1.311l1.143,1.226l-0.313,3.873l-2.965,2.139
			c7.197,14.667,20.126,26.028,35.592,31.244l2.811,0.947l-2.811,0.947C139.631,188.252,132.804,189.373,125.898,189.373z
			 M125.898,64.373c-33.912,0-61.501,27.589-61.501,61.5s27.589,61.5,61.501,61.5c5.709,0,11.362-0.791,16.846-2.354
			c-14.985-5.866-27.39-17.396-34.313-32.009l-0.356-0.752l3.569-2.576l0.168-2.072l-2.08-2.231l2.508-1.826l-0.483-1.762
			l-2.951-1.25l-0.568-3.995l9.258-4.361l-9.756-19.334l3.958-4.146l-1.13-14.079l0.154-0.269
			c7.25-12.645,18.548-22.366,32.022-27.629C137.26,65.164,131.608,64.373,125.898,64.373z"/>
	</g>
	<g>
		<g>
			<path style="fill:#F2E5A2;" d="M93.426,108.679c-3.452,0-6.464,1.877-8.076,4.664c1.612,2.787,4.624,4.664,8.076,4.664
				s6.462-1.877,8.076-4.664C99.889,110.556,96.878,108.679,93.426,108.679z"/>
			<path d="M93.426,119.007c-3.674,0-7.1-1.979-8.942-5.163l-0.29-0.501l0.29-0.501c1.842-3.185,5.268-5.163,8.942-5.163
				c3.672,0,7.098,1.979,8.941,5.163l0.29,0.501l-0.29,0.501C100.524,117.029,97.098,119.007,93.426,119.007z M86.53,113.343
				c1.541,2.274,4.132,3.664,6.896,3.664c2.763,0,5.354-1.39,6.896-3.664c-1.542-2.274-4.133-3.664-6.896-3.664
				C90.662,109.679,88.071,111.069,86.53,113.343z"/>
		</g>
		<path d="M104.634,112.98c-0.345,0-0.681-0.179-0.867-0.499c-2.132-3.684-6.094-5.972-10.341-5.972
			c-4.248,0-8.211,2.288-10.344,5.972c-0.276,0.479-0.888,0.642-1.366,0.364c-0.478-0.276-0.641-0.889-0.364-1.366
			c2.489-4.299,7.115-6.97,12.074-6.97c4.958,0,9.584,2.671,12.073,6.97c0.276,0.479,0.113,1.09-0.365,1.366
			C104.977,112.937,104.804,112.98,104.634,112.98z"/>
		<g>
			<circle style="fill:#F2E5A2;" cx="93.426" cy="113.343" r="2.864"/>
			<path d="M93.426,117.207c-2.131,0-3.864-1.733-3.864-3.863c0-2.131,1.733-3.865,3.864-3.865s3.864,1.734,3.864,3.865
				C97.291,115.473,95.557,117.207,93.426,117.207z M93.426,111.478c-1.028,0-1.864,0.837-1.864,1.865
				c0,1.027,0.836,1.863,1.864,1.863s1.864-0.836,1.864-1.863C95.291,112.315,94.454,111.478,93.426,111.478z"/>
		</g>
	</g>
	<path d="M111.232,146.521h-10.483c-0.552,0-1-0.447-1-1s0.448-1,1-1h10.483c0.553,0,1,0.447,1,1S111.784,146.521,111.232,146.521z"
		/>
	<g>
		<circle style="fill:#F2E5A2;" cx="152.85" cy="85.533" r="3.331"/>
		<path d="M152.849,89.863c-2.388,0-4.33-1.942-4.33-4.33s1.942-4.33,4.33-4.33c2.389,0,4.332,1.942,4.332,4.33
			S155.237,89.863,152.849,89.863z M152.849,83.203c-1.285,0-2.33,1.045-2.33,2.33s1.045,2.33,2.33,2.33
			c1.286,0,2.332-1.045,2.332-2.33S154.135,83.203,152.849,83.203z"/>
	</g>
	<g>
		<circle style="fill:#F2E5A2;" cx="145.869" cy="125.873" r="3.331"/>
		<path d="M145.87,130.205c-2.389,0-4.332-1.943-4.332-4.332c0-2.388,1.943-4.33,4.332-4.33c2.388,0,4.33,1.942,4.33,4.33
			C150.2,128.261,148.258,130.205,145.87,130.205z M145.87,123.543c-1.286,0-2.332,1.045-2.332,2.33
			c0,1.286,1.046,2.332,2.332,2.332c1.285,0,2.33-1.046,2.33-2.332C148.2,124.587,147.155,123.543,145.87,123.543z"/>
	</g>
	<g>
		<circle style="fill:#F2E5A2;" cx="126.926" cy="158.406" r="3.331"/>
		<path d="M126.927,162.738c-2.389,0-4.332-1.943-4.332-4.332c0-2.388,1.943-4.33,4.332-4.33c2.388,0,4.33,1.942,4.33,4.33
			C131.257,160.795,129.315,162.738,126.927,162.738z M126.927,156.076c-1.286,0-2.332,1.045-2.332,2.33
			c0,1.286,1.046,2.332,2.332,2.332c1.285,0,2.33-1.046,2.33-2.332C129.257,157.121,128.212,156.076,126.927,156.076z"/>
	</g>
	<g>
		<circle style="fill:#F2E5A2;" cx="175.288" cy="138.812" r="1.666"/>
		<path d="M175.288,141.478c-1.47,0-2.666-1.196-2.666-2.666c0-1.469,1.196-2.664,2.666-2.664s2.666,1.195,2.666,2.664
			C177.954,140.282,176.758,141.478,175.288,141.478z M175.288,138.148c-0.367,0-0.666,0.298-0.666,0.664
			c0,0.367,0.299,0.666,0.666,0.666s0.666-0.299,0.666-0.666C175.954,138.446,175.655,138.148,175.288,138.148z"/>
	</g>
	<g>
		<circle style="fill:#F2E5A2;" cx="171.957" cy="108.744" r="1.665"/>
		<path d="M171.956,111.41c-1.469,0-2.664-1.196-2.664-2.666c0-1.469,1.195-2.664,2.664-2.664c1.47,0,2.666,1.195,2.666,2.664
			C174.622,110.213,173.426,111.41,171.956,111.41z M171.956,108.08c-0.366,0-0.664,0.298-0.664,0.664
			c0,0.367,0.298,0.666,0.664,0.666c0.367,0,0.666-0.299,0.666-0.666C172.622,108.378,172.323,108.08,171.956,108.08z"/>
	</g>
	<g>
		<circle style="fill:#F2E5A2;" cx="123.596" cy="98.115" r="1.665"/>
		<path d="M123.595,100.781c-1.469,0-2.664-1.196-2.664-2.666c0-1.469,1.195-2.664,2.664-2.664c1.47,0,2.666,1.195,2.666,2.664
			C126.261,99.585,125.065,100.781,123.595,100.781z M123.595,97.451c-0.366,0-0.664,0.298-0.664,0.664
			c0,0.367,0.298,0.666,0.664,0.666c0.367,0,0.666-0.299,0.666-0.666C124.261,97.749,123.962,97.451,123.595,97.451z"/>
	</g>
	<g>
		<circle style="fill:#F2E5A2;" cx="154.515" cy="168.427" r="1.666"/>
		<path d="M154.515,171.093c-1.47,0-2.666-1.196-2.666-2.666c0-1.469,1.196-2.664,2.666-2.664s2.666,1.195,2.666,2.664
			C157.181,169.897,155.985,171.093,154.515,171.093z M154.515,167.763c-0.367,0-0.666,0.298-0.666,0.664
			c0,0.367,0.299,0.666,0.666,0.666s0.666-0.299,0.666-0.666C155.181,168.061,154.882,167.763,154.515,167.763z"/>
	</g>
</g>
<g>
</g>
<g>
</g>
<g>
</g>
<g>
</g>
<g>
</g>
<g>
</g>
<g>
</g>
<g>
</g>
<g>
</g>
<g>
</g>
<g>
</g>
<g>
</g>
<g>
</g>
<g>
</g>
<g>
</g>
</svg>
