<?xml version="1.0" encoding="iso-8859-1"?>
<!-- Generator: Adobe Illustrator 18.0.0, SVG Export Plug-In . SVG Version: 6.00 Build 0)  -->
<!DOCTYPE svg PUBLIC "-//W3C//DTD SVG 1.1//EN" "http://www.w3.org/Graphics/SVG/1.1/DTD/svg11.dtd">
<svg version="1.1" id="Capa_1" xmlns="http://www.w3.org/2000/svg" xmlns:xlink="http://www.w3.org/1999/xlink" x="0px" y="0px"
	 viewBox="0 0 136.745 136.745" style="enable-background:new 0 0 136.745 136.745;" xml:space="preserve">
<g>
	<path d="M133.487,65.865c-0.488-9.25-2.801-18.439-6.754-26.804c0.568-0.619,0.928-1.434,0.928-2.324
		c0-1.89-1.577-3.467-3.467-3.467c-0.177,0-0.347,0.027-0.517,0.054c-3.32-5.585-7.422-10.676-12.27-14.986
		c-1.777-1.58-3.678-3.013-5.657-4.334c0.093-0.355,0.157-0.719,0.157-1.09c0-2.829-2.775-4.935-5.501-4.19
		c-0.657,0.18-1.493,0.584-2.029,1.102c-8.857-4.215-18.817-6.43-28.461-6.986c-0.282-0.483-0.689-0.89-1.171-1.207
		c-1.343-1.143-3.565-0.907-4.771,0.3c-0.239,0.238-0.426,0.517-0.588,0.809C51.089,3.173,39.324,7.338,29.683,14.644
		c-0.871-1.051-2.166-1.742-3.611-1.742c-2.572,0-4.718,2.146-4.718,4.719c0,1.265,0.522,2.423,1.355,3.276
		c-0.48,0.507-0.958,1.017-1.422,1.542C13.456,30.666,8.02,41.193,5.293,52.43c-0.261-0.041-0.524-0.08-0.813-0.08
		c-5.701,0-5.956,8.405-0.793,9.199c-1.382,12.647,0.621,25.608,6.435,36.749c-2.431,2.604-1.342,8.071,3.292,8.071
		c0.614,0,1.149-0.117,1.639-0.29c0.108,0.143,0.205,0.292,0.314,0.434c4.806,6.192,10.832,11.442,17.58,15.599
		c-0.179,2.357,1.24,4.859,4.29,4.859c1.195,0,2.127-0.397,2.826-1.006c6.268,2.957,12.959,5.033,19.754,6.123
		c0.253,1.972,1.653,3.768,4.222,3.768c2.201,0,3.542-1.321,4.043-2.938c1.841,0.073,3.679,0.079,5.509,0
		c9.247-0.398,18.131-2.941,26.122-7.175c0.786,0.979,1.994,1.644,3.634,1.644c3.947,0,5.42-3.836,4.419-6.7
		c5.887-4.329,11.07-9.658,15.271-15.752c1.556-2.258,2.919-4.615,4.122-7.041c0.055,0.002,0.108,0.014,0.164,0.014
		c0.854-0.003,1.651-0.218,2.39-0.646c0.67-0.393,1.357-1.048,1.784-1.795c0.319-0.462,0.565-1.011,0.704-1.585
		c0.11-0.395,0.166-0.799,0.166-1.156c0-1.26-0.615-2.463-1.617-3.21c-0.052-0.044-0.111-0.077-0.165-0.118
		c1.481-4.681,2.401-9.534,2.787-14.447c1.935-0.625,3.374-2.439,3.374-4.56C136.745,68.31,135.363,66.524,133.487,65.865z
		 M121.974,39.363c-1.68,3.794-2.743,8.042-4.025,11.892c-1.646,4.943-3.55,9.948-4.751,15.06c-0.19-0.05-0.382-0.078-0.576-0.093
		c-0.133-3.476-0.855-7.038-1.378-10.384c-0.592-3.79-1.323-7.603-2.464-11.277c1.465-0.285,2.236-1.503,2.334-2.786
		c1.768-0.187,3.636-0.724,4.951-0.998c1.714-0.356,3.884-0.758,5.774-1.525C121.881,39.292,121.929,39.325,121.974,39.363z
		 M122.737,94.318c-1.849,0.5-3.688,1.052-5.539,1.581c-5.089,1.454-10.335,2.396-15.415,3.829c-0.167-0.273-0.36-0.528-0.589-0.752
		c2.223-4.119,4.323-8.322,6.531-12.445c2.018-3.768,4.662-8.189,5.565-12.596c1.48,2.432,3.571,4.602,5.191,6.834
		c2.065,2.848,3.429,6.267,5.283,9.29C122.772,91.208,122.36,92.804,122.737,94.318z M94.887,102.276
		c-10.838,2.253-20.532,9.258-31.657,10.976c-0.031-0.083-0.053-0.17-0.09-0.25c3.8-2.912,6.676-7.298,9.277-11.153
		c2.993-4.435,6.389-8.938,9.242-13.573c0.083,0.006,0.163,0.025,0.247,0.025c1.28,0,2.399-0.764,2.951-1.848
		c2.347,1.882,4.328,4.522,6.313,6.51c1.68,1.683,3.199,3.988,4.993,5.856c-0.81,0.694-1.34,1.708-1.34,2.838
		C94.824,101.869,94.853,102.073,94.887,102.276z M29.083,94.028c-0.052,0.04-0.103,0.083-0.153,0.127
		c-3.095-5.978-6.933-11.697-10.303-17.463c-3.346-5.725-6.85-11.354-10.542-16.859c0.268-0.383,0.484-0.799,0.627-1.247
		c3.627,1.518,7.283,2.968,10.889,4.534c2.515,1.093,5.048,2.235,7.67,3.045c-0.126,1.722,0.664,3.514,2.382,4.214
		C28.878,78.026,27.89,86.516,29.083,94.028z M30.372,40.204c6.427-0.612,13.406-2.47,19.383-5.214
		c0.215,0.21,0.461,0.379,0.72,0.523c-2.831,4.473-5.294,9.204-8.386,13.543c-3.181,4.464-6.141,9.057-9.201,13.594
		c-0.342-0.138-0.727-0.221-1.141-0.262c-1.818-6.014-2.284-12.41-4.306-18.302c1.674-0.48,2.935-2.026,2.935-3.839
		C30.376,40.232,30.372,40.219,30.372,40.204z M61.906,69.073c3.469-4.839,7.29-9.307,11.049-13.864
		c0.558,0.396,1.231,0.635,1.955,0.635c0.032,0,0.063-0.009,0.095-0.01c0.372,4.047,2.054,8.534,2.766,12.277
		c0.838,4.404,1.201,9.505,2.516,13.998c-0.774,0.445-1.358,1.184-1.586,2.064c-3.981-1.016-8.291-1.195-12.284-1.801
		c-3.85-0.584-7.711-1.608-11.598-1.961c-0.151-0.3-0.346-0.58-0.588-0.834C57.115,76.37,59.507,72.419,61.906,69.073z
		 M52.564,78.606c-0.896-0.234-1.875-0.132-2.703,0.354c-0.326,0.191-0.61,0.434-0.853,0.709c-2.399-2.252-5.079-4.295-7.453-6.525
		c-2.036-1.913-4.134-3.702-6.484-5.11c0.188-0.553,0.257-1.145,0.231-1.732c6.441-1.36,12.705-3.994,18.767-6.399
		c5.602-2.221,12.047-4.023,17.478-6.92c0.024,0.14,0.063,0.273,0.104,0.408c-3.52,3.612-6.512,7.888-9.458,11.891
		C59.092,69.493,55.328,73.944,52.564,78.606z M79.829,67.543c-0.786-3.563-1.351-8.582-3.189-12.195
		c0.608-0.365,1.103-0.904,1.395-1.556c5.535,3.447,11.26,6.702,16.804,10.151c3.688,2.295,8.444,5.217,13.05,6.725
		c0.037,0.217,0.094,0.425,0.166,0.625c-4.657,1.685-8.987,4.492-13.416,6.577c-3.535,1.666-7.251,2.688-10.468,4.709
		c-0.385-0.363-0.855-0.629-1.373-0.778C82.357,77.036,80.815,72.002,79.829,67.543z M95.016,61.644
		c-4.599-2.819-9.229-6.649-14.399-8.643c3.744-0.863,7.461-2.153,11.017-3.318c4.689-1.537,9.875-3.376,14.277-5.971
		c0.384,0.418,0.899,0.728,1.553,0.851c0.563,3.852,1.244,7.69,1.761,11.549c0.454,3.395,0.522,6.921,0.989,10.343
		c-0.839,0.356-1.519,1.011-1.937,1.815C103.864,66.064,99.217,64.22,95.016,61.644z M105.104,41.674
		c-4.705,1.886-9.262,4.186-14.055,5.891c-4.178,1.486-8.61,2.595-12.791,4.16c-0.056-0.261-0.149-0.507-0.262-0.743
		c1.62-1.916,2.963-4.125,4.349-6.153c2.119-3.104,4.155-6.266,6.212-9.412c1.557-0.044,2.877-1.182,3.194-2.664
		c2.303,1.282,4.651,2.492,6.992,3.693c2.203,1.131,4.365,2.572,6.611,3.741C105.163,40.654,105.079,41.164,105.104,41.674z
		 M82.091,41.469c-1.891,2.461-4.085,5.077-5.895,7.79c-0.398-0.166-0.832-0.261-1.285-0.261c-0.286,0-0.561,0.048-0.827,0.116
		c-3.27-3.291-7.196-6.229-10.563-9.304c-2.564-2.342-5.212-4.511-8.193-6.176c0.023-0.056,0.05-0.106,0.073-0.164
		c0.07-0.179,0.141-0.357,0.212-0.536c0.085-0.215,0.132-0.45,0.148-0.693c4.801,0.521,9.761,0.374,14.548,0.499
		c4.969,0.131,9.952,0.374,14.917,0.144c0.27,1.042,1.03,1.899,2.019,2.297C85.416,37.18,83.752,39.306,82.091,41.469z
		 M64.324,43.429c2.46,2.286,4.968,5.021,7.853,6.972c-0.1,0.134-0.186,0.276-0.266,0.424c-6.297,1.201-12.564,4.662-18.415,7.006
		c-6.142,2.461-12.481,4.339-18.69,6.573c-0.162-0.311-0.363-0.597-0.603-0.856c3.243-3.704,5.859-8.001,8.746-11.961
		c3.512-4.817,7.625-10.078,9.97-15.724c0.319-0.076,0.626-0.194,0.92-0.364c0.248-0.144,0.447-0.313,0.628-0.494
		C57.86,37.685,61.145,40.474,64.324,43.429z M30.82,82.878c0.084-4.07,0.228-8.148,0.129-12.219
		c0.113,0.008,0.214,0.033,0.332,0.033c1.217,0,2.144-0.439,2.811-1.1c2.676,2.112,5.182,4.416,7.675,6.765
		c1.979,1.863,3.98,3.94,6.366,5.283c-0.052,0.443-0.032,0.898,0.09,1.344c0.073,0.267,0.184,0.509,0.309,0.739
		c-2.683,1.281-5.395,2.628-7.845,4.223c-2.66,1.73-4.934,3.966-7.448,5.901c-0.569-0.371-1.24-0.593-1.958-0.593
		c-0.074,0-0.144,0.018-0.217,0.022C31.003,89.816,30.748,86.336,30.82,82.878z M40.843,90.646c2.859-2.127,6.601-3.154,9.33-5.405
		c0.458,0.209,0.959,0.339,1.486,0.358c0.007,0,0.014,0,0.021,0.001c0.25,0.01,0.499-0.025,0.744-0.078
		c2.103,8.433,3.938,17.102,6.536,25.354c-0.368,0.05-0.74,0.163-1.09,0.326c-3.747-2.508-7.637-4.855-11.382-7.326
		c-3.432-2.265-7.417-5.471-11.575-7.036c-0.009-0.592-0.174-1.146-0.441-1.641C36.72,93.904,38.717,92.227,40.843,90.646z
		 M53.578,85.037c0.733-0.474,1.31-1.2,1.511-2.033c0.001-0.007,0.003-0.014,0.005-0.019c0.058-0.24,0.087-0.483,0.1-0.725
		c3.4,1.21,7.074,1.735,10.607,2.346c4.18,0.724,8.722,1.746,13.063,1.684c0.147,0.335,0.355,0.636,0.599,0.904
		c-2.717,3.421-4.861,7.558-7.133,11.062c-3.104,4.791-6.509,9.186-10.086,13.562c-0.183-0.151-0.383-0.286-0.605-0.393
		c-0.467-0.224-0.775-0.356-1.114-0.44C59.249,102.354,57.129,93.105,53.578,85.037z M90.772,89.788
		c-1.311-1.298-3.375-3.796-5.569-5.046c-0.023-0.313-0.087-0.615-0.194-0.9c3.501-1.521,7.157-2.705,10.671-4.191
		c4.583-1.938,9.306-4.209,13.82-6.512c0.357,0.249,0.756,0.453,1.188,0.6c0.07,0.023,0.144,0.034,0.215,0.053
		c-1.931,4.342-3.546,8.823-5.829,13.063c-1.945,3.61-4.032,7.33-5.131,11.313c-0.375-0.149-0.777-0.234-1.196-0.253
		C96.119,95.173,93.457,92.444,90.772,89.788z M104.243,16.328c7.062,4.773,12.855,11.016,17.26,18.269
		c-0.477,0.595-0.775,1.334-0.775,2.141c0,0.136,0.025,0.265,0.041,0.397c-1.734,0.624-3.461,1.342-5.208,1.815
		c-1.37,0.37-3.187,0.525-4.847,0.886c-0.471-0.843-1.338-1.457-2.601-1.457c-0.111,0-0.208,0.021-0.314,0.031
		c-1.386-4.297-2.051-8.501-2.646-13.087c-0.379-2.923-0.809-5.753-1.797-8.443C103.676,16.724,103.977,16.536,104.243,16.328z
		 M98.657,16.676c0.736,0.502,1.619,0.799,2.46,0.799c0.256,0,0.515-0.034,0.773-0.086c1.143,6.29,0.578,13.816,2.978,19.662
		c-1.671-0.892-3.419-1.667-5.03-2.476c-2.645-1.328-5.398-2.514-8.192-3.531c-0.226-0.684-0.658-1.276-1.234-1.692
		c0.732-1.334,1.435-2.685,2.223-3.933C94.528,22.417,96.502,19.484,98.657,16.676z M70.264,5.512
		c0.011-0.038,0.01-0.076,0.02-0.114c6.169,0.451,12.301,1.702,18.167,3.465c2.991,0.898,5.839,2.012,8.546,3.311
		c-0.181,0.783-0.113,1.373,0.043,2.197c0.107,0.568,0.385,1.075,0.752,1.516c-2.178,2.346-4.225,4.804-6.181,7.35
		c-0.917,1.193-1.909,2.507-2.807,3.895c-1.957-3.313-4.87-6.268-7.374-8.979c-3.734-4.039-7.67-7.885-11.549-11.784
		C70.042,6.098,70.18,5.816,70.264,5.512z M66.856,8.106c0.638-0.002,1.232-0.163,1.784-0.482c0.047-0.027,0.085-0.065,0.131-0.095
		c2.685,3.502,5.699,6.692,8.775,9.894c3.473,3.613,6.383,7.811,9.715,11.523c-0.926,0.366-1.649,1.136-1.967,2.084
		c-4.984-0.308-9.993-0.232-14.985-0.312c-4.883-0.076-9.932-0.459-14.836-0.083c-0.069-0.17-0.139-0.341-0.224-0.486
		c-0.072-0.123-0.153-0.238-0.238-0.351c2.31-3.136,4.134-6.774,5.884-10.136c1.855-3.563,3.936-7.589,4.835-11.661
		C66.088,8.103,66.458,8.151,66.856,8.106z M53.855,6.33c3.021-0.616,6.082-0.956,9.156-1.072c0.171,0.769,0.586,1.523,1.192,2.014
		c-1.789,3.723-3.175,7.669-5.134,11.326c-1.795,3.353-4.078,6.548-5.879,9.932c-0.341-0.107-0.698-0.169-1.063-0.169
		c-0.494,0-0.978,0.107-1.425,0.299c-3.121-2.447-6.357-4.771-9.616-6.989c-3.192-2.175-6.634-4.067-10.355-4.627
		c-0.021-0.157-0.035-0.314-0.07-0.467C37.569,11.668,45.222,8.09,53.855,6.33z M30.6,18.858c3.774,1.306,7.253,3.298,10.604,5.554
		c2.666,1.794,5.158,3.906,7.834,5.702c-0.505,0.84-0.747,1.933-0.396,2.82c0.036,0.092,0.072,0.183,0.108,0.275
		c-6.222,1.746-12.402,3.952-18.598,5.795c-0.421-1.248-1.439-2.228-2.71-2.593c-0.064-1.65-0.262-3.31-0.397-4.928
		c-0.254-3.06-0.45-6.122-0.527-9.19C28.465,22.101,30.082,20.701,30.6,18.858z M29.566,62.684
		c-0.708,0.309-1.244,0.812-1.628,1.413c-2.964-1.213-5.983-2.318-8.914-3.58c-3.316-1.428-6.621-2.931-10.087-3.897
		c-0.026-0.383-0.09-0.761-0.198-1.126c5.764-2.961,11.437-7.135,15.956-11.629c0.315,0.149,0.649,0.258,1.001,0.32
		C26.842,50.312,27.206,56.986,29.566,62.684z M20.933,24.781c1.022-1.005,2.058-1.984,3.115-2.928
		c0.327,0.16,0.667,0.292,1.029,0.372c-0.135,2.547-0.1,5.087-0.003,7.663c0.079,2.12,0.054,4.345,0.195,6.531
		c-1.659,0.49-2.905,2.027-2.905,3.828c0,0.838,0.272,1.619,0.726,2.269c-4.983,3.958-9.571,8.321-14.972,11.673
		c-0.21-0.308-0.455-0.589-0.744-0.833C9.64,42.982,14.251,32.986,20.933,24.781z M13.414,96.945c-0.271,0-0.516,0.04-0.763,0.075
		c-4.67-8.887-7.075-19.085-6.881-30.138c0.032-1.844,0.148-3.694,0.333-5.545c0.276-0.099,0.532-0.22,0.768-0.364
		c3.255,5.628,6.524,11.248,9.891,16.81c3.611,5.967,6.933,12.396,11.047,18.096c-0.097,0.324-0.166,0.66-0.166,1.014
		c0,0.009,0.002,0.018,0.002,0.026c-1.58,0.337-3.152,0.727-4.72,1.028c-1.838,0.354-3.753,0.674-5.603,1.172
		C16.609,97.86,15.307,96.945,13.414,96.945z M33.805,119.704c-6.625-4.212-12.194-9.398-16.58-15.369
		c0.567-0.919,0.8-2.031,0.711-3.122c1.402-0.292,2.803-0.597,4.203-0.847c2.096-0.374,4.296-0.622,6.409-1.118
		c0.671,0.775,1.647,1.282,2.734,1.282c0.299,0,0.586-0.049,0.866-0.119c0.928,3.534,1.97,7.042,2.784,10.616
		c0.527,2.315,0.938,4.739,1.563,7.081C35.293,118.288,34.399,118.887,33.805,119.704z M38.884,118.341
		c-0.742-3.146-1.719-6.278-2.483-9.37c-0.746-3.017-1.558-6.292-3.054-9.104c0.402-0.282,0.742-0.646,1.004-1.062
		c4.128,2.365,8.082,5.071,12.022,7.71c2.966,1.986,6.186,4.706,9.571,6.665c-0.306,0.674-0.421,1.404-0.333,2.119
		c-2.256,0.736-4.499,1.864-6.707,2.526c-2.632,0.79-5.307,1.484-7.895,2.411C40.57,119.394,39.859,118.711,38.884,118.341z
		 M60.101,129.658c-6.233-0.986-12.369-2.838-18.175-5.526c-0.191-0.089-0.376-0.184-0.566-0.273
		c0.193-0.695,0.246-1.435,0.134-2.149c3.096-0.478,6.161-1.264,9.16-2.116c1.874-0.532,4.167-1.081,6.045-2.09
		c0.645,0.631,1.498,1.001,2.394,1.068c0.31,1.739,0.735,3.459,1.229,5.145c0.361,1.234,0.743,2.649,1.217,4.056
		C60.868,128.246,60.39,128.909,60.101,129.658z M67.302,128.48c-0.712-0.871-1.795-1.463-3.263-1.463
		c-0.047,0-0.086,0.012-0.132,0.013c-1.161-2.843-2.414-5.649-3.347-8.581c1.012-0.258,1.939-0.945,2.446-1.812
		c0.339-0.58,0.493-1.274,0.487-1.971c5.751-0.559,11.106-2.344,16.52-4.49c4.17-1.653,8.295-3.153,12.48-4.551
		c-3.706,2.836-7.096,6.335-10.314,9.367C77.328,119.563,72.143,123.883,67.302,128.48z M98.775,123.786
		c-9.464,4.886-20.016,7.035-30.57,6.658c-0.026-0.131-0.061-0.26-0.098-0.389c4.75-3.166,8.91-7.44,13.002-11.288
		c5.06-4.756,10.736-9.031,15.811-13.766c0.506,0.257,1.065,0.415,1.663,0.415c0.186,0,0.364-0.029,0.544-0.056
		c0.82,2.632,1,6.313,1.322,8.072c0.258,1.413,0.396,3.064,0.594,4.729C99.035,119.227,98.277,121.676,98.775,123.786z
		 M108.774,117.241c-0.699,0.57-1.411,1.115-2.13,1.647c-0.71-0.701-1.688-1.172-2.929-1.251c-0.535-2.298-1.21-4.583-1.671-6.669
		c-0.325-1.471-0.714-4.052-1.604-6.073c1.125-0.656,1.902-1.864,1.902-3.238c0-0.227-0.028-0.446-0.068-0.662
		c3.993,0.037,8.021-0.964,11.858-1.943c3.25-0.829,6.528-1.679,9.774-2.616c0.27,0.281,0.582,0.518,0.913,0.726
		C121.034,104.773,115.643,111.638,108.774,117.241z M128.343,88.479c-0.192-0.024-0.383-0.035-0.576-0.035
		c-0.658-0.044-1.331,0.048-1.945,0.251c-1.512-2.602-2.941-5.244-4.554-7.807c-1.874-2.98-4.361-5.598-6.683-8.313
		c0.609-0.708,0.963-1.668,0.963-2.565c0-0.021-0.006-0.04-0.006-0.061c0-0.004,0-0.007,0.001-0.01
		c3.749,1.041,7.945,2.013,11.988,2.346c0.629,1.431,1.937,2.511,3.499,2.818C130.622,79.672,129.722,84.155,128.343,88.479z
		 M127.19,69.775c-1.106-0.103-2.212-0.221-3.314-0.393c-2.865-0.445-5.673-0.977-8.536-1.173c-0.165-0.394-0.404-0.756-0.71-1.062
		c-0.039-0.039-0.082-0.066-0.121-0.103c1.618-3.884,2.841-7.954,4.213-11.913c1.666-4.805,4.021-9.892,5.246-14.952
		c0.076,0.005,0.149,0.023,0.227,0.023c0.11,0,0.216-0.022,0.324-0.033c2.658,5.543,4.589,11.546,5.732,17.846
		c0.463,2.548,0.761,5.1,0.914,7.643C129.101,66.005,127.467,67.692,127.19,69.775z"/>
</g>
<g>
</g>
<g>
</g>
<g>
</g>
<g>
</g>
<g>
</g>
<g>
</g>
<g>
</g>
<g>
</g>
<g>
</g>
<g>
</g>
<g>
</g>
<g>
</g>
<g>
</g>
<g>
</g>
<g>
</g>
</svg>
